<svg width="487" height="245" viewBox="0 0 487 245" fill="none" xmlns="http://www.w3.org/2000/svg">
<path d="M20 20H26.4707V53.8148L53.3358 53.8219V20H59.8051V53.8219H67V66H60.521V60.3496L20 60.2834V20Z" fill="white"/>
<path d="M110 103V143H150V103H110ZM143.367 136.784H116.138V109.348H143.367V136.784Z" fill="white"/>
<path d="M191.534 109.549H218.425V143H225V103H185V143H191.534V109.549Z" fill="white"/>
<path d="M173.138 191.481H200.367V225H207V185H167V225H173.138V191.481Z" fill="white"/>
<circle cx="220" cy="220" r="5" fill="#0284C7"/>
<rect y="160" width="245" height="5" fill="white"/>
<rect y="79" width="245" height="5" fill="white"/>
<rect x="165" y="160" width="76" height="5" transform="rotate(-90 165 160)" fill="white"/>
<path fill-rule="evenodd" clip-rule="evenodd" d="M245 12.25V5.00001V1.07093e-05H240H5H4.98693e-06L2.18557e-07 0L0 5H4.98693e-06L2.18557e-07 240L4.98693e-06 245H5H232.75H240H245V240V12.25ZM240 240V5.00001L232.75 5.00001L5 5V12.25V240L240 240Z" fill="white"/>
<path d="M275.084 46.4V44H261.68V26.72H263.816V42.056H273.224V26.96H275.36V42.056H277.22V46.4H275.084ZM284.757 44.36C283.485 44.36 282.373 44.08 281.421 43.52C280.477 42.952 279.741 42.164 279.213 41.156C278.685 40.14 278.421 38.956 278.421 37.604C278.421 36.188 278.681 34.964 279.201 33.932C279.721 32.892 280.445 32.092 281.373 31.532C282.309 30.964 283.405 30.68 284.661 30.68C285.965 30.68 287.073 30.98 287.985 31.58C288.905 32.18 289.593 33.036 290.049 34.148C290.513 35.26 290.713 36.584 290.649 38.12H288.489V37.352C288.465 35.76 288.141 34.572 287.517 33.788C286.893 32.996 285.965 32.6 284.733 32.6C283.413 32.6 282.409 33.024 281.721 33.872C281.033 34.72 280.689 35.936 280.689 37.52C280.689 39.048 281.033 40.232 281.721 41.072C282.409 41.912 283.389 42.332 284.661 42.332C285.517 42.332 286.261 42.136 286.893 41.744C287.525 41.352 288.021 40.788 288.381 40.052L290.433 40.76C289.929 41.904 289.169 42.792 288.153 43.424C287.145 44.048 286.013 44.36 284.757 44.36ZM279.969 38.12V36.404H289.545V38.12H279.969ZM293.309 44V31.04H295.445V36.5H302.261V31.04H304.397V44H302.261V38.528H295.445V44H293.309ZM311.19 44V32.984H306.678V31.04H317.838V32.984H313.326V44H311.19ZM326.062 44.36C324.846 44.36 323.822 44.06 322.99 43.46C322.158 42.852 321.526 42.032 321.094 41C320.67 39.96 320.458 38.796 320.458 37.508C320.458 36.204 320.67 35.036 321.094 34.004C321.526 32.972 322.158 32.16 322.99 31.568C323.83 30.976 324.858 30.68 326.074 30.68C327.274 30.68 328.306 30.98 329.17 31.58C330.042 32.172 330.71 32.984 331.174 34.016C331.638 35.048 331.87 36.212 331.87 37.508C331.87 38.804 331.638 39.968 331.174 41C330.71 42.032 330.042 42.852 329.17 43.46C328.306 44.06 327.27 44.36 326.062 44.36ZM320.098 49.76V31.04H322.006V40.58H322.246V49.76H320.098ZM325.798 42.404C326.654 42.404 327.362 42.188 327.922 41.756C328.482 41.324 328.902 40.74 329.182 40.004C329.462 39.26 329.602 38.428 329.602 37.508C329.602 36.596 329.462 35.772 329.182 35.036C328.91 34.3 328.486 33.716 327.91 33.284C327.342 32.852 326.618 32.636 325.738 32.636C324.898 32.636 324.202 32.844 323.65 33.26C323.098 33.668 322.686 34.24 322.414 34.976C322.142 35.704 322.006 36.548 322.006 37.508C322.006 38.452 322.138 39.296 322.402 40.04C322.674 40.776 323.09 41.356 323.65 41.78C324.21 42.196 324.926 42.404 325.798 42.404ZM268.784 74.36C267.064 74.36 265.604 73.98 264.404 73.22C263.204 72.46 262.288 71.404 261.656 70.052C261.032 68.7 260.72 67.136 260.72 65.36C260.72 63.584 261.032 62.02 261.656 60.668C262.288 59.316 263.204 58.26 264.404 57.5C265.604 56.74 267.064 56.36 268.784 56.36C270.512 56.36 271.976 56.74 273.176 57.5C274.376 58.26 275.288 59.316 275.912 60.668C276.536 62.02 276.848 63.584 276.848 65.36C276.848 67.136 276.536 68.7 275.912 70.052C275.288 71.404 274.376 72.46 273.176 73.22C271.976 73.98 270.512 74.36 268.784 74.36ZM268.784 72.32C270.072 72.328 271.144 72.04 272 71.456C272.864 70.864 273.508 70.044 273.932 68.996C274.364 67.948 274.58 66.736 274.58 65.36C274.58 63.976 274.364 62.764 273.932 61.724C273.508 60.684 272.864 59.872 272 59.288C271.144 58.704 270.072 58.408 268.784 58.4C267.496 58.392 266.424 58.68 265.568 59.264C264.72 59.848 264.08 60.664 263.648 61.712C263.216 62.76 262.996 63.976 262.988 65.36C262.98 66.736 263.192 67.944 263.624 68.984C264.056 70.024 264.7 70.84 265.556 71.432C266.42 72.016 267.496 72.312 268.784 72.32ZM279.246 74V61.04H289.866V74H287.73V63.068H281.382V74H279.246ZM298.843 74.36C297.571 74.36 296.459 74.08 295.507 73.52C294.563 72.952 293.827 72.164 293.299 71.156C292.771 70.14 292.507 68.956 292.507 67.604C292.507 66.188 292.767 64.964 293.287 63.932C293.807 62.892 294.531 62.092 295.459 61.532C296.395 60.964 297.491 60.68 298.747 60.68C300.051 60.68 301.159 60.98 302.071 61.58C302.991 62.18 303.679 63.036 304.135 64.148C304.599 65.26 304.799 66.584 304.735 68.12H302.575V67.352C302.551 65.76 302.227 64.572 301.603 63.788C300.979 62.996 300.051 62.6 298.819 62.6C297.499 62.6 296.495 63.024 295.807 63.872C295.119 64.72 294.775 65.936 294.775 67.52C294.775 69.048 295.119 70.232 295.807 71.072C296.495 71.912 297.475 72.332 298.747 72.332C299.603 72.332 300.347 72.136 300.979 71.744C301.611 71.352 302.107 70.788 302.467 70.052L304.519 70.76C304.015 71.904 303.255 72.792 302.239 73.424C301.231 74.048 300.099 74.36 298.843 74.36ZM294.055 68.12V66.404H303.631V68.12H294.055ZM313.359 74.36C312.143 74.36 311.119 74.06 310.287 73.46C309.455 72.852 308.823 72.032 308.391 71C307.967 69.96 307.755 68.796 307.755 67.508C307.755 66.204 307.967 65.036 308.391 64.004C308.823 62.972 309.455 62.16 310.287 61.568C311.127 60.976 312.155 60.68 313.371 60.68C314.571 60.68 315.603 60.98 316.467 61.58C317.339 62.172 318.007 62.984 318.471 64.016C318.935 65.048 319.167 66.212 319.167 67.508C319.167 68.804 318.935 69.968 318.471 71C318.007 72.032 317.339 72.852 316.467 73.46C315.603 74.06 314.567 74.36 313.359 74.36ZM307.395 79.76V61.04H309.303V70.58H309.543V79.76H307.395ZM313.095 72.404C313.951 72.404 314.659 72.188 315.219 71.756C315.779 71.324 316.199 70.74 316.479 70.004C316.759 69.26 316.899 68.428 316.899 67.508C316.899 66.596 316.759 65.772 316.479 65.036C316.207 64.3 315.783 63.716 315.207 63.284C314.639 62.852 313.915 62.636 313.035 62.636C312.195 62.636 311.499 62.844 310.947 63.26C310.395 63.668 309.983 64.24 309.711 64.976C309.439 65.704 309.303 66.548 309.303 67.508C309.303 68.452 309.435 69.296 309.699 70.04C309.971 70.776 310.387 71.356 310.947 71.78C311.507 72.196 312.223 72.404 313.095 72.404ZM327.413 74.36C326.141 74.36 325.029 74.08 324.077 73.52C323.133 72.952 322.397 72.164 321.869 71.156C321.341 70.14 321.077 68.956 321.077 67.604C321.077 66.188 321.337 64.964 321.857 63.932C322.377 62.892 323.101 62.092 324.029 61.532C324.965 60.964 326.061 60.68 327.317 60.68C328.621 60.68 329.729 60.98 330.641 61.58C331.561 62.18 332.249 63.036 332.705 64.148C333.169 65.26 333.369 66.584 333.305 68.12H331.145V67.352C331.121 65.76 330.797 64.572 330.173 63.788C329.549 62.996 328.621 62.6 327.389 62.6C326.069 62.6 325.065 63.024 324.377 63.872C323.689 64.72 323.345 65.936 323.345 67.52C323.345 69.048 323.689 70.232 324.377 71.072C325.065 71.912 326.045 72.332 327.317 72.332C328.173 72.332 328.917 72.136 329.549 71.744C330.181 71.352 330.677 70.788 331.037 70.052L333.089 70.76C332.585 71.904 331.825 72.792 330.809 73.424C329.801 74.048 328.669 74.36 327.413 74.36ZM322.625 68.12V66.404H332.201V68.12H322.625ZM334.068 74L339.3 67.52L334.32 61.04H336.696L341.508 67.4V61.04H343.452V67.4L348.264 61.04H350.64L345.66 67.52L350.892 74H348.408L343.452 67.64V74H341.508V67.64L336.552 74H334.068ZM356.02 74.36C355.052 74.36 354.24 74.184 353.584 73.832C352.936 73.472 352.444 73 352.108 72.416C351.78 71.832 351.616 71.192 351.616 70.496C351.616 69.816 351.744 69.228 352 68.732C352.264 68.228 352.632 67.812 353.104 67.484C353.576 67.148 354.14 66.884 354.796 66.692C355.412 66.524 356.1 66.38 356.86 66.26C357.628 66.132 358.404 66.016 359.188 65.912C359.972 65.808 360.704 65.708 361.384 65.612L360.616 66.056C360.64 64.904 360.408 64.052 359.92 63.5C359.44 62.948 358.608 62.672 357.424 62.672C356.64 62.672 355.952 62.852 355.36 63.212C354.776 63.564 354.364 64.14 354.124 64.94L352.096 64.328C352.408 63.192 353.012 62.3 353.908 61.652C354.804 61.004 355.984 60.68 357.448 60.68C358.624 60.68 359.632 60.892 360.472 61.316C361.32 61.732 361.928 62.364 362.296 63.212C362.48 63.612 362.596 64.048 362.644 64.52C362.692 64.984 362.716 65.472 362.716 65.984V74H360.82V70.892L361.264 71.18C360.776 72.228 360.092 73.02 359.212 73.556C358.34 74.092 357.276 74.36 356.02 74.36ZM356.344 72.572C357.112 72.572 357.776 72.436 358.336 72.164C358.904 71.884 359.36 71.52 359.704 71.072C360.048 70.616 360.272 70.12 360.376 69.584C360.496 69.184 360.56 68.74 360.568 68.252C360.584 67.756 360.592 67.376 360.592 67.112L361.336 67.436C360.64 67.532 359.956 67.624 359.284 67.712C358.612 67.8 357.976 67.896 357.376 68C356.776 68.096 356.236 68.212 355.756 68.348C355.404 68.46 355.072 68.604 354.76 68.78C354.456 68.956 354.208 69.184 354.016 69.464C353.832 69.736 353.74 70.076 353.74 70.484C353.74 70.836 353.828 71.172 354.004 71.492C354.188 71.812 354.468 72.072 354.844 72.272C355.228 72.472 355.728 72.572 356.344 72.572ZM376.408 74.36C375.304 74.36 374.328 74.124 373.48 73.652C372.64 73.18 371.964 72.512 371.452 71.648C370.94 70.784 370.62 69.764 370.492 68.588H367.96V74H365.824V61.04H367.96V66.452H370.48C370.608 65.252 370.932 64.22 371.452 63.356C371.972 62.492 372.656 61.832 373.504 61.376C374.352 60.912 375.328 60.68 376.432 60.68C377.72 60.68 378.828 60.972 379.756 61.556C380.692 62.14 381.408 62.944 381.904 63.968C382.408 64.992 382.66 66.168 382.66 67.496C382.66 68.848 382.404 70.04 381.892 71.072C381.388 72.104 380.668 72.912 379.732 73.496C378.804 74.072 377.696 74.36 376.408 74.36ZM376.372 72.332C377.732 72.332 378.74 71.888 379.396 71C380.06 70.104 380.392 68.94 380.392 67.508C380.392 66.036 380.056 64.868 379.384 64.004C378.72 63.14 377.72 62.708 376.384 62.708C375.096 62.708 374.116 63.136 373.444 63.992C372.772 64.848 372.436 66.016 372.436 67.496C372.436 68.96 372.768 70.132 373.432 71.012C374.104 71.892 375.084 72.332 376.372 72.332ZM399.785 76.4V74H385.277V61.04H387.341V72.056H391.805V61.04H393.869V72.056H398.321V61.04H400.385V72.056H401.921V76.4H399.785ZM409.468 74.36C408.196 74.36 407.084 74.08 406.132 73.52C405.188 72.952 404.452 72.164 403.924 71.156C403.396 70.14 403.132 68.956 403.132 67.604C403.132 66.188 403.392 64.964 403.912 63.932C404.432 62.892 405.156 62.092 406.084 61.532C407.02 60.964 408.116 60.68 409.372 60.68C410.676 60.68 411.784 60.98 412.696 61.58C413.616 62.18 414.304 63.036 414.76 64.148C415.224 65.26 415.424 66.584 415.36 68.12H413.2V67.352C413.176 65.76 412.852 64.572 412.228 63.788C411.604 62.996 410.676 62.6 409.444 62.6C408.124 62.6 407.12 63.024 406.432 63.872C405.744 64.72 405.4 65.936 405.4 67.52C405.4 69.048 405.744 70.232 406.432 71.072C407.12 71.912 408.1 72.332 409.372 72.332C410.228 72.332 410.972 72.136 411.604 71.744C412.236 71.352 412.732 70.788 413.092 70.052L415.144 70.76C414.64 71.904 413.88 72.792 412.864 73.424C411.856 74.048 410.724 74.36 409.468 74.36ZM404.68 68.12V66.404H414.256V68.12H404.68ZM423.612 59.528C423.012 59.528 422.464 59.38 421.968 59.084C421.472 58.788 421.076 58.396 420.78 57.908C420.484 57.412 420.336 56.86 420.336 56.252H422.064C422.064 56.676 422.216 57.04 422.52 57.344C422.824 57.648 423.188 57.8 423.612 57.8C424.044 57.8 424.408 57.648 424.704 57.344C425.008 57.04 425.16 56.676 425.16 56.252H426.888C426.888 56.86 426.74 57.412 426.444 57.908C426.156 58.396 425.76 58.788 425.256 59.084C424.76 59.38 424.212 59.528 423.612 59.528ZM428.64 61.04V74H426.576V64.448L419.784 74H418.02V61.04H420.084V70.46L426.888 61.04H428.64ZM261.68 104V86.72H274.916V104H273.152V88.412H263.444V104H261.68ZM284.094 104.36C282.902 104.36 281.894 104.06 281.07 103.46C280.246 102.852 279.622 102.032 279.198 101C278.774 99.96 278.562 98.796 278.562 97.508C278.562 96.196 278.774 95.028 279.198 94.004C279.63 92.972 280.262 92.16 281.094 91.568C281.926 90.976 282.95 90.68 284.166 90.68C285.35 90.68 286.366 90.98 287.214 91.58C288.062 92.18 288.71 92.996 289.158 94.028C289.614 95.06 289.842 96.22 289.842 97.508C289.842 98.804 289.614 99.968 289.158 101C288.702 102.032 288.046 102.852 287.19 103.46C286.334 104.06 285.302 104.36 284.094 104.36ZM278.262 109.76V91.04H279.846V100.796H280.038V109.76H278.262ZM283.914 102.716C284.818 102.716 285.57 102.488 286.17 102.032C286.77 101.576 287.218 100.956 287.514 100.172C287.818 99.38 287.97 98.492 287.97 97.508C287.97 96.532 287.822 95.652 287.526 94.868C287.23 94.084 286.778 93.464 286.17 93.008C285.57 92.552 284.806 92.324 283.878 92.324C282.974 92.324 282.222 92.544 281.622 92.984C281.03 93.424 280.586 94.036 280.29 94.82C279.994 95.596 279.846 96.492 279.846 97.508C279.846 98.508 279.994 99.404 280.29 100.196C280.586 100.98 281.034 101.596 281.634 102.044C282.234 102.492 282.994 102.716 283.914 102.716ZM297.889 104.36C296.601 104.36 295.501 104.068 294.589 103.484C293.677 102.9 292.977 102.092 292.489 101.06C292.001 100.028 291.757 98.844 291.757 97.508C291.757 96.148 292.005 94.956 292.501 93.932C292.997 92.908 293.701 92.112 294.613 91.544C295.533 90.968 296.625 90.68 297.889 90.68C299.185 90.68 300.289 90.972 301.201 91.556C302.121 92.132 302.821 92.936 303.301 93.968C303.789 94.992 304.033 96.172 304.033 97.508C304.033 98.868 303.789 100.064 303.301 101.096C302.813 102.12 302.109 102.92 301.189 103.496C300.269 104.072 299.169 104.36 297.889 104.36ZM297.889 102.668C299.329 102.668 300.401 102.192 301.105 101.24C301.809 100.28 302.161 99.036 302.161 97.508C302.161 95.94 301.805 94.692 301.093 93.764C300.389 92.836 299.321 92.372 297.889 92.372C296.921 92.372 296.121 92.592 295.489 93.032C294.865 93.464 294.397 94.068 294.085 94.844C293.781 95.612 293.629 96.5 293.629 97.508C293.629 99.068 293.989 100.32 294.709 101.264C295.429 102.2 296.489 102.668 297.889 102.668ZM312.824 109.4V104.252C311.56 104.452 310.408 104.316 309.368 103.844C308.328 103.364 307.5 102.588 306.884 101.516C306.268 100.444 305.96 99.116 305.96 97.532C305.96 95.948 306.268 94.62 306.884 93.548C307.5 92.468 308.328 91.688 309.368 91.208C310.408 90.728 311.56 90.588 312.824 90.788V86.816H314.456V90.788C315.72 90.588 316.872 90.728 317.912 91.208C318.952 91.688 319.78 92.468 320.396 93.548C321.012 94.62 321.32 95.948 321.32 97.532C321.32 99.116 321.012 100.444 320.396 101.516C319.78 102.588 318.952 103.364 317.912 103.844C316.872 104.316 315.72 104.452 314.456 104.252V109.4H312.824ZM312.824 102.608V92.444C312.176 92.332 311.552 92.352 310.952 92.504C310.352 92.648 309.812 92.932 309.332 93.356C308.852 93.772 308.472 94.328 308.192 95.024C307.92 95.712 307.784 96.548 307.784 97.532C307.784 98.516 307.924 99.356 308.204 100.052C308.484 100.74 308.864 101.292 309.344 101.708C309.824 102.124 310.364 102.404 310.964 102.548C311.564 102.692 312.184 102.712 312.824 102.608ZM314.456 102.608C315.096 102.712 315.716 102.692 316.316 102.548C316.916 102.404 317.456 102.128 317.936 101.72C318.416 101.304 318.796 100.752 319.076 100.064C319.356 99.368 319.496 98.524 319.496 97.532C319.496 96.54 319.356 95.7 319.076 95.012C318.804 94.316 318.428 93.76 317.948 93.344C317.468 92.928 316.928 92.648 316.328 92.504C315.728 92.352 315.104 92.332 314.456 92.444V102.608ZM329.437 104.36C328.173 104.36 327.077 104.08 326.149 103.52C325.229 102.96 324.513 102.172 324.001 101.156C323.489 100.14 323.233 98.948 323.233 97.58C323.233 96.164 323.485 94.94 323.989 93.908C324.493 92.876 325.201 92.08 326.113 91.52C327.033 90.96 328.117 90.68 329.365 90.68C330.645 90.68 331.737 90.976 332.641 91.568C333.545 92.152 334.229 92.992 334.693 94.088C335.157 95.184 335.369 96.492 335.329 98.012H333.529V97.388C333.497 95.708 333.133 94.44 332.437 93.584C331.749 92.728 330.741 92.3 329.413 92.3C328.021 92.3 326.953 92.752 326.209 93.656C325.473 94.56 325.105 95.848 325.105 97.52C325.105 99.152 325.473 100.42 326.209 101.324C326.953 102.22 328.005 102.668 329.365 102.668C330.293 102.668 331.101 102.456 331.789 102.032C332.485 101.6 333.033 100.98 333.433 100.172L335.077 100.808C334.565 101.936 333.809 102.812 332.809 103.436C331.817 104.052 330.693 104.36 329.437 104.36ZM324.481 98.012V96.536H334.381V98.012H324.481ZM343.368 104.36C342.065 104.36 340.961 104.068 340.057 103.484C339.153 102.9 338.465 102.096 337.993 101.072C337.529 100.04 337.289 98.856 337.273 97.52C337.289 96.16 337.537 94.968 338.017 93.944C338.497 92.912 339.189 92.112 340.093 91.544C340.997 90.968 342.093 90.68 343.381 90.68C344.693 90.68 345.833 91 346.801 91.64C347.777 92.28 348.445 93.156 348.805 94.268L347.077 94.82C346.773 94.044 346.289 93.444 345.625 93.02C344.969 92.588 344.217 92.372 343.368 92.372C342.417 92.372 341.629 92.592 341.005 93.032C340.381 93.464 339.917 94.068 339.613 94.844C339.309 95.62 339.153 96.512 339.145 97.52C339.161 99.072 339.521 100.32 340.225 101.264C340.929 102.2 341.977 102.668 343.368 102.668C344.249 102.668 344.997 102.468 345.613 102.068C346.237 101.66 346.709 101.068 347.029 100.292L348.805 100.82C348.325 101.972 347.621 102.852 346.693 103.46C345.765 104.06 344.657 104.36 343.368 104.36ZM356.306 104.36C355.002 104.36 353.898 104.068 352.994 103.484C352.09 102.9 351.402 102.096 350.93 101.072C350.466 100.04 350.226 98.856 350.21 97.52C350.226 96.16 350.474 94.968 350.954 93.944C351.434 92.912 352.126 92.112 353.03 91.544C353.934 90.968 355.03 90.68 356.318 90.68C357.63 90.68 358.77 91 359.738 91.64C360.714 92.28 361.382 93.156 361.742 94.268L360.014 94.82C359.71 94.044 359.226 93.444 358.562 93.02C357.906 92.588 357.154 92.372 356.306 92.372C355.354 92.372 354.566 92.592 353.942 93.032C353.318 93.464 352.854 94.068 352.55 94.844C352.246 95.62 352.09 96.512 352.082 97.52C352.098 99.072 352.458 100.32 353.162 101.264C353.866 102.2 354.914 102.668 356.306 102.668C357.186 102.668 357.934 102.468 358.55 102.068C359.174 101.66 359.646 101.068 359.966 100.292L361.742 100.82C361.262 101.972 360.558 102.852 359.63 103.46C358.702 104.06 357.594 104.36 356.306 104.36ZM374.515 91.04V104H372.799V93.908L365.695 104H364.207V91.04H365.923V101.048L373.039 91.04H374.515ZM383.295 104.36C382.007 104.36 380.907 104.068 379.995 103.484C379.083 102.9 378.383 102.092 377.895 101.06C377.407 100.028 377.163 98.844 377.163 97.508C377.163 96.148 377.411 94.956 377.907 93.932C378.403 92.908 379.107 92.112 380.019 91.544C380.939 90.968 382.031 90.68 383.295 90.68C384.591 90.68 385.695 90.972 386.607 91.556C387.527 92.132 388.227 92.936 388.707 93.968C389.195 94.992 389.439 96.172 389.439 97.508C389.439 98.868 389.195 100.064 388.707 101.096C388.219 102.12 387.515 102.92 386.595 103.496C385.675 104.072 384.575 104.36 383.295 104.36ZM383.295 102.668C384.735 102.668 385.807 102.192 386.511 101.24C387.215 100.28 387.567 99.036 387.567 97.508C387.567 95.94 387.211 94.692 386.499 93.764C385.795 92.836 384.727 92.372 383.295 92.372C382.327 92.372 381.527 92.592 380.895 93.032C380.271 93.464 379.803 94.068 379.491 94.844C379.187 95.612 379.035 96.5 379.035 97.508C379.035 99.068 379.395 100.32 380.115 101.264C380.835 102.2 381.895 102.668 383.295 102.668ZM392.074 104V91.04H393.838V96.668H401.146V91.04H402.91V104H401.146V98.36H393.838V104H392.074ZM409.974 104.36C408.998 104.36 408.178 104.184 407.514 103.832C406.858 103.48 406.366 103.012 406.038 102.428C405.71 101.844 405.546 101.208 405.546 100.52C405.546 99.816 405.686 99.216 405.966 98.72C406.254 98.216 406.642 97.804 407.13 97.484C407.626 97.164 408.198 96.92 408.846 96.752C409.502 96.592 410.226 96.452 411.018 96.332C411.818 96.204 412.598 96.096 413.358 96.008C414.126 95.912 414.798 95.82 415.374 95.732L414.75 96.116C414.774 94.836 414.526 93.888 414.006 93.272C413.486 92.656 412.582 92.348 411.294 92.348C410.406 92.348 409.654 92.548 409.038 92.948C408.43 93.348 408.002 93.98 407.754 94.844L406.038 94.34C406.334 93.18 406.93 92.28 407.826 91.64C408.722 91 409.886 90.68 411.318 90.68C412.502 90.68 413.506 90.904 414.33 91.352C415.162 91.792 415.75 92.432 416.094 93.272C416.254 93.648 416.358 94.068 416.406 94.532C416.454 94.996 416.478 95.468 416.478 95.948V104H414.906V100.748L415.362 100.94C414.922 102.052 414.238 102.9 413.31 103.484C412.382 104.068 411.27 104.36 409.974 104.36ZM410.178 102.836C411.002 102.836 411.722 102.688 412.338 102.392C412.954 102.096 413.45 101.692 413.826 101.18C414.202 100.66 414.446 100.076 414.558 99.428C414.654 99.012 414.706 98.556 414.714 98.06C414.722 97.556 414.726 97.18 414.726 96.932L415.398 97.28C414.798 97.36 414.146 97.44 413.442 97.52C412.746 97.6 412.058 97.692 411.378 97.796C410.706 97.9 410.098 98.024 409.554 98.168C409.186 98.272 408.83 98.42 408.486 98.612C408.142 98.796 407.858 99.044 407.634 99.356C407.418 99.668 407.31 100.056 407.31 100.52C407.31 100.896 407.402 101.26 407.586 101.612C407.778 101.964 408.082 102.256 408.498 102.488C408.922 102.72 409.482 102.836 410.178 102.836ZM418.402 104V102.452C418.882 102.54 419.246 102.52 419.494 102.392C419.75 102.256 419.938 102.032 420.058 101.72C420.178 101.4 420.278 101.004 420.358 100.532C420.486 99.748 420.602 98.884 420.706 97.94C420.81 96.996 420.902 95.956 420.982 94.82C421.07 93.676 421.158 92.416 421.246 91.04H430.054V104H428.302V92.732H422.878C422.822 93.58 422.758 94.424 422.686 95.264C422.614 96.104 422.538 96.912 422.458 97.688C422.386 98.456 422.306 99.164 422.218 99.812C422.13 100.46 422.038 101.02 421.942 101.492C421.798 102.204 421.606 102.772 421.366 103.196C421.134 103.62 420.786 103.9 420.322 104.036C419.858 104.172 419.218 104.16 418.402 104ZM433.419 104L433.395 91.04H435.171V95.924H438.207C438.583 95.924 438.951 95.932 439.311 95.948C439.679 95.964 440.003 95.996 440.283 96.044C440.923 96.164 441.491 96.376 441.987 96.68C442.491 96.984 442.883 97.404 443.163 97.94C443.451 98.476 443.595 99.148 443.595 99.956C443.595 101.068 443.307 101.944 442.731 102.584C442.163 103.224 441.443 103.64 440.571 103.832C440.243 103.904 439.887 103.952 439.503 103.976C439.119 103.992 438.739 104 438.363 104H433.419ZM435.171 102.488H438.291C438.563 102.488 438.867 102.48 439.203 102.464C439.539 102.448 439.835 102.404 440.091 102.332C440.515 102.212 440.899 101.972 441.243 101.612C441.595 101.244 441.771 100.692 441.771 99.956C441.771 99.228 441.603 98.68 441.267 98.312C440.931 97.936 440.483 97.688 439.923 97.568C439.675 97.512 439.407 97.476 439.119 97.46C438.831 97.444 438.555 97.436 438.291 97.436H435.171V102.488ZM445.863 104V91.04H447.627V96.668H454.935V91.04H456.699V104H454.935V98.36H447.627V104H445.863ZM465.467 104.36C464.179 104.36 463.079 104.068 462.167 103.484C461.255 102.9 460.555 102.092 460.067 101.06C459.579 100.028 459.335 98.844 459.335 97.508C459.335 96.148 459.583 94.956 460.079 93.932C460.575 92.908 461.279 92.112 462.191 91.544C463.111 90.968 464.203 90.68 465.467 90.68C466.763 90.68 467.867 90.972 468.779 91.556C469.699 92.132 470.399 92.936 470.879 93.968C471.367 94.992 471.611 96.172 471.611 97.508C471.611 98.868 471.367 100.064 470.879 101.096C470.391 102.12 469.687 102.92 468.767 103.496C467.847 104.072 466.747 104.36 465.467 104.36ZM465.467 102.668C466.907 102.668 467.979 102.192 468.683 101.24C469.387 100.28 469.739 99.036 469.739 97.508C469.739 95.94 469.383 94.692 468.671 93.764C467.967 92.836 466.899 92.372 465.467 92.372C464.499 92.372 463.699 92.592 463.067 93.032C462.443 93.464 461.975 94.068 461.663 94.844C461.359 95.612 461.207 96.5 461.207 97.508C461.207 99.068 461.567 100.32 462.287 101.264C463.007 102.2 464.067 102.668 465.467 102.668ZM479.634 89.504C479.066 89.504 478.546 89.364 478.074 89.084C477.602 88.804 477.226 88.432 476.946 87.968C476.674 87.496 476.538 86.976 476.538 86.408H478.002C478.002 86.856 478.162 87.24 478.482 87.56C478.802 87.88 479.186 88.04 479.634 88.04C480.09 88.04 480.474 87.88 480.786 87.56C481.106 87.24 481.266 86.856 481.266 86.408H482.73C482.73 86.976 482.59 87.496 482.31 87.968C482.038 88.432 481.666 88.804 481.194 89.084C480.722 89.364 480.202 89.504 479.634 89.504ZM484.554 91.04V104H482.838V93.908L475.734 104H474.246V91.04H475.962V101.048L483.078 91.04H484.554ZM261.68 134V116.72H275.168V134H273.032V118.748H263.816V134H261.68ZM284.052 134.36C282.764 134.36 281.652 134.068 280.716 133.484C279.788 132.9 279.072 132.092 278.568 131.06C278.064 130.028 277.812 128.844 277.812 127.508C277.812 126.148 278.068 124.956 278.58 123.932C279.092 122.908 279.816 122.112 280.752 121.544C281.688 120.968 282.788 120.68 284.052 120.68C285.348 120.68 286.464 120.972 287.4 121.556C288.336 122.132 289.052 122.936 289.548 123.968C290.052 124.992 290.304 126.172 290.304 127.508C290.304 128.86 290.052 130.052 289.548 131.084C289.044 132.108 288.324 132.912 287.388 133.496C286.452 134.072 285.34 134.36 284.052 134.36ZM284.052 132.332C285.396 132.332 286.396 131.884 287.052 130.988C287.708 130.092 288.036 128.932 288.036 127.508C288.036 126.044 287.704 124.88 287.04 124.016C286.376 123.144 285.38 122.708 284.052 122.708C283.148 122.708 282.404 122.912 281.82 123.32C281.236 123.728 280.8 124.292 280.512 125.012C280.224 125.732 280.08 126.564 280.08 127.508C280.08 128.964 280.416 130.132 281.088 131.012C281.76 131.892 282.748 132.332 284.052 132.332ZM291.986 136.88V132.236C292.714 132.236 293.234 132 293.546 131.528C293.858 131.048 294.11 130.26 294.302 129.164C294.43 128.476 294.534 127.74 294.614 126.956C294.694 126.172 294.762 125.3 294.818 124.34C294.882 123.372 294.942 122.272 294.998 121.04H303.926V132.236H305.186V136.88H303.146V134H294.026V136.88H291.986ZM295.274 132.236H301.79V122.804H296.93C296.906 123.372 296.874 123.968 296.834 124.592C296.794 125.208 296.746 125.824 296.69 126.44C296.642 127.056 296.582 127.64 296.51 128.192C296.446 128.736 296.37 129.224 296.282 129.656C296.178 130.256 296.058 130.764 295.922 131.18C295.786 131.596 295.57 131.948 295.274 132.236ZM307.594 134V121.04H316.594V123.068H309.73V134H307.594ZM324.153 134.36C322.865 134.36 321.753 134.068 320.817 133.484C319.889 132.9 319.173 132.092 318.669 131.06C318.165 130.028 317.913 128.844 317.913 127.508C317.913 126.148 318.169 124.956 318.681 123.932C319.193 122.908 319.917 122.112 320.853 121.544C321.789 120.968 322.889 120.68 324.153 120.68C325.449 120.68 326.565 120.972 327.501 121.556C328.437 122.132 329.153 122.936 329.649 123.968C330.153 124.992 330.405 126.172 330.405 127.508C330.405 128.86 330.153 130.052 329.649 131.084C329.145 132.108 328.425 132.912 327.489 133.496C326.553 134.072 325.441 134.36 324.153 134.36ZM324.153 132.332C325.497 132.332 326.497 131.884 327.153 130.988C327.809 130.092 328.137 128.932 328.137 127.508C328.137 126.044 327.805 124.88 327.141 124.016C326.477 123.144 325.481 122.708 324.153 122.708C323.249 122.708 322.505 122.912 321.921 123.32C321.337 123.728 320.901 124.292 320.613 125.012C320.325 125.732 320.181 126.564 320.181 127.508C320.181 128.964 320.517 130.132 321.189 131.012C321.861 131.892 322.849 132.332 324.153 132.332ZM336.198 134V122.984H331.686V121.04H342.846V122.984H338.334V134H336.198ZM350.403 134.36C349.115 134.36 348.003 134.068 347.067 133.484C346.139 132.9 345.423 132.092 344.919 131.06C344.415 130.028 344.163 128.844 344.163 127.508C344.163 126.148 344.419 124.956 344.931 123.932C345.443 122.908 346.167 122.112 347.103 121.544C348.039 120.968 349.139 120.68 350.403 120.68C351.699 120.68 352.815 120.972 353.751 121.556C354.687 122.132 355.403 122.936 355.899 123.968C356.403 124.992 356.655 126.172 356.655 127.508C356.655 128.86 356.403 130.052 355.899 131.084C355.395 132.108 354.675 132.912 353.739 133.496C352.803 134.072 351.691 134.36 350.403 134.36ZM350.403 132.332C351.747 132.332 352.747 131.884 353.403 130.988C354.059 130.092 354.387 128.932 354.387 127.508C354.387 126.044 354.055 124.88 353.391 124.016C352.727 123.144 351.731 122.708 350.403 122.708C349.499 122.708 348.755 122.912 348.171 123.32C347.587 123.728 347.151 124.292 346.863 125.012C346.575 125.732 346.431 126.564 346.431 127.508C346.431 128.964 346.767 130.132 347.439 131.012C348.111 131.892 349.099 132.332 350.403 132.332ZM359.285 134V121.04H364.805C365.133 121.04 365.485 121.06 365.861 121.1C366.245 121.132 366.593 121.192 366.905 121.28C367.601 121.464 368.173 121.844 368.621 122.42C369.077 122.988 369.305 123.708 369.305 124.58C369.305 125.068 369.229 125.492 369.077 125.852C368.933 126.212 368.725 126.524 368.453 126.788C368.333 126.908 368.201 127.016 368.057 127.112C367.913 127.208 367.769 127.284 367.625 127.34C367.905 127.388 368.189 127.496 368.477 127.664C368.933 127.912 369.289 128.26 369.545 128.708C369.809 129.156 369.941 129.728 369.941 130.424C369.941 131.304 369.729 132.032 369.305 132.608C368.881 133.176 368.297 133.568 367.553 133.784C367.241 133.872 366.897 133.932 366.521 133.964C366.145 133.988 365.781 134 365.429 134H359.285ZM361.445 132.26H365.309C365.477 132.26 365.677 132.244 365.909 132.212C366.149 132.18 366.361 132.14 366.545 132.092C366.961 131.972 367.261 131.748 367.445 131.42C367.637 131.092 367.733 130.736 367.733 130.352C367.733 129.84 367.589 129.424 367.301 129.104C367.021 128.784 366.649 128.584 366.185 128.504C366.017 128.456 365.833 128.428 365.633 128.42C365.441 128.412 365.269 128.408 365.117 128.408H361.445V132.26ZM361.445 126.644H364.661C364.885 126.644 365.121 126.632 365.369 126.608C365.617 126.576 365.833 126.524 366.017 126.452C366.385 126.316 366.653 126.092 366.821 125.78C366.997 125.46 367.085 125.112 367.085 124.736C367.085 124.32 366.989 123.956 366.797 123.644C366.613 123.324 366.329 123.104 365.945 122.984C365.689 122.888 365.401 122.836 365.081 122.828C364.769 122.812 364.569 122.804 364.481 122.804H361.445V126.644ZM372.34 134L372.352 121.04H374.512V127.28L379.948 121.04H382.72L376.996 127.52L383.392 134H380.404L374.512 127.76V134H372.34ZM395.194 121.04V134H393.13V124.448L386.338 134H384.574V121.04H386.638V130.46L393.442 121.04H395.194Z" fill="white"/>
<path d="M268.988 225.36C267.26 225.36 265.78 224.984 264.548 224.232C263.316 223.472 262.368 222.416 261.704 221.064C261.048 219.712 260.72 218.144 260.72 216.36C260.72 214.576 261.048 213.008 261.704 211.656C262.368 210.304 263.316 209.252 264.548 208.5C265.78 207.74 267.26 207.36 268.988 207.36C270.716 207.36 272.196 207.74 273.428 208.5C274.668 209.252 275.616 210.304 276.272 211.656C276.936 213.008 277.268 214.576 277.268 216.36C277.268 218.144 276.936 219.712 276.272 221.064C275.616 222.416 274.668 223.472 273.428 224.232C272.196 224.984 270.716 225.36 268.988 225.36ZM268.988 222.636C270.148 222.644 271.112 222.388 271.88 221.868C272.656 221.348 273.236 220.616 273.62 219.672C274.012 218.728 274.208 217.624 274.208 216.36C274.208 215.096 274.012 214 273.62 213.072C273.236 212.136 272.656 211.408 271.88 210.888C271.112 210.368 270.148 210.1 268.988 210.084C267.828 210.076 266.864 210.332 266.096 210.852C265.328 211.372 264.748 212.104 264.356 213.048C263.972 213.992 263.78 215.096 263.78 216.36C263.78 217.624 263.972 218.724 264.356 219.66C264.74 220.588 265.316 221.312 266.084 221.832C266.86 222.352 267.828 222.62 268.988 222.636ZM285.045 225.384C283.813 225.368 282.765 225.092 281.901 224.556C281.037 224.02 280.361 223.264 279.873 222.288C279.385 221.312 279.089 220.16 278.985 218.832C278.937 218.152 278.933 217.392 278.973 216.552C279.013 215.712 279.101 214.892 279.237 214.092C279.373 213.292 279.561 212.612 279.801 212.052C280.049 211.492 280.373 210.976 280.773 210.504C281.173 210.024 281.605 209.624 282.069 209.304C282.597 208.936 283.169 208.652 283.785 208.452C284.409 208.252 285.061 208.1 285.741 207.996C286.421 207.884 287.121 207.784 287.841 207.696C288.561 207.608 289.273 207.496 289.977 207.36L290.241 209.916C289.793 210.028 289.273 210.116 288.681 210.18C288.097 210.236 287.489 210.3 286.857 210.372C286.233 210.444 285.637 210.548 285.069 210.684C284.501 210.82 284.009 211.02 283.593 211.284C283.017 211.636 282.577 212.14 282.273 212.796C281.969 213.452 281.789 214.144 281.733 214.872C282.229 214.136 282.845 213.62 283.581 213.324C284.325 213.02 285.077 212.868 285.837 212.868C286.989 212.868 287.977 213.14 288.801 213.684C289.633 214.228 290.269 214.968 290.709 215.904C291.157 216.832 291.381 217.868 291.381 219.012C291.381 220.292 291.113 221.412 290.577 222.372C290.041 223.332 289.297 224.076 288.345 224.604C287.393 225.132 286.293 225.392 285.045 225.384ZM285.189 222.672C286.229 222.672 287.013 222.352 287.541 221.712C288.077 221.064 288.345 220.204 288.345 219.132C288.345 218.036 288.069 217.172 287.517 216.54C286.973 215.908 286.197 215.592 285.189 215.592C284.165 215.592 283.385 215.908 282.849 216.54C282.313 217.172 282.045 218.036 282.045 219.132C282.045 220.252 282.317 221.124 282.861 221.748C283.405 222.364 284.181 222.672 285.189 222.672ZM300.252 225.36C298.988 225.36 297.928 225.06 297.072 224.46C296.216 223.86 295.572 223.044 295.14 222.012C294.708 220.972 294.492 219.808 294.492 218.52C294.492 217.216 294.708 216.048 295.14 215.016C295.572 213.984 296.204 213.172 297.036 212.58C297.876 211.98 298.912 211.68 300.144 211.68C301.368 211.68 302.428 211.98 303.324 212.58C304.228 213.172 304.928 213.984 305.424 215.016C305.92 216.04 306.168 217.208 306.168 218.52C306.168 219.816 305.924 220.98 305.436 222.012C304.948 223.044 304.26 223.86 303.372 224.46C302.484 225.06 301.444 225.36 300.252 225.36ZM294 230.76V212.04H296.556V221.136H296.916V230.76H294ZM299.808 222.768C300.56 222.768 301.18 222.58 301.668 222.204C302.156 221.828 302.516 221.32 302.748 220.68C302.988 220.032 303.108 219.312 303.108 218.52C303.108 217.736 302.988 217.024 302.748 216.384C302.508 215.736 302.136 215.224 301.632 214.848C301.128 214.464 300.488 214.272 299.712 214.272C298.976 214.272 298.376 214.452 297.912 214.812C297.448 215.164 297.104 215.66 296.88 216.3C296.664 216.932 296.556 217.672 296.556 218.52C296.556 219.36 296.664 220.1 296.88 220.74C297.104 221.38 297.452 221.88 297.924 222.24C298.404 222.592 299.032 222.768 299.808 222.768ZM312.437 225.36C311.501 225.36 310.709 225.184 310.061 224.832C309.413 224.472 308.921 223.996 308.585 223.404C308.257 222.812 308.093 222.16 308.093 221.448C308.093 220.824 308.197 220.264 308.405 219.768C308.613 219.264 308.933 218.832 309.365 218.472C309.797 218.104 310.357 217.804 311.045 217.572C311.565 217.404 312.173 217.252 312.869 217.116C313.573 216.98 314.333 216.856 315.149 216.744C315.973 216.624 316.833 216.496 317.729 216.36L316.697 216.948C316.705 216.052 316.505 215.392 316.097 214.968C315.689 214.544 315.001 214.332 314.033 214.332C313.449 214.332 312.885 214.468 312.341 214.74C311.797 215.012 311.417 215.48 311.201 216.144L308.561 215.316C308.881 214.22 309.489 213.34 310.385 212.676C311.289 212.012 312.505 211.68 314.033 211.68C315.185 211.68 316.197 211.868 317.069 212.244C317.949 212.62 318.601 213.236 319.025 214.092C319.257 214.548 319.397 215.016 319.445 215.496C319.493 215.968 319.517 216.484 319.517 217.044V225H316.985V222.192L317.405 222.648C316.821 223.584 316.137 224.272 315.353 224.712C314.577 225.144 313.605 225.36 312.437 225.36ZM313.013 223.056C313.669 223.056 314.229 222.94 314.693 222.708C315.157 222.476 315.525 222.192 315.797 221.856C316.077 221.52 316.265 221.204 316.361 220.908C316.513 220.54 316.597 220.12 316.613 219.648C316.637 219.168 316.649 218.78 316.649 218.484L317.537 218.748C316.665 218.884 315.917 219.004 315.293 219.108C314.669 219.212 314.133 219.312 313.685 219.408C313.237 219.496 312.841 219.596 312.497 219.708C312.161 219.828 311.877 219.968 311.645 220.128C311.413 220.288 311.233 220.472 311.105 220.68C310.985 220.888 310.925 221.132 310.925 221.412C310.925 221.732 311.005 222.016 311.165 222.264C311.325 222.504 311.557 222.696 311.861 222.84C312.173 222.984 312.557 223.056 313.013 223.056ZM327.249 225.36C326.017 225.36 324.893 225.1 323.877 224.58C322.861 224.06 322.061 223.348 321.477 222.444L323.757 220.92C324.221 221.472 324.737 221.9 325.305 222.204C325.873 222.5 326.505 222.648 327.201 222.648C327.929 222.648 328.501 222.488 328.917 222.168C329.333 221.848 329.541 221.42 329.541 220.884C329.541 220.412 329.401 220.08 329.121 219.888C328.841 219.688 328.473 219.568 328.017 219.528C327.561 219.488 327.073 219.468 326.553 219.468H325.593V217.176H326.541C327.269 217.176 327.877 217.092 328.365 216.924C328.861 216.756 329.109 216.384 329.109 215.808C329.109 215.288 328.917 214.92 328.533 214.704C328.149 214.48 327.701 214.368 327.189 214.368C326.565 214.368 325.949 214.5 325.341 214.764C324.733 215.028 324.189 215.348 323.709 215.724L322.077 213.756C322.797 213.116 323.601 212.612 324.489 212.244C325.377 211.868 326.325 211.68 327.333 211.68C328.165 211.68 328.941 211.824 329.661 212.112C330.389 212.4 330.973 212.832 331.413 213.408C331.861 213.984 332.085 214.696 332.085 215.544C332.085 216.152 331.953 216.724 331.689 217.26C331.433 217.796 331.021 218.304 330.453 218.784L330.417 217.848C330.857 218.032 331.229 218.288 331.533 218.616C331.845 218.944 332.081 219.328 332.241 219.768C332.409 220.208 332.493 220.676 332.493 221.172C332.493 222.076 332.253 222.84 331.773 223.464C331.293 224.088 330.653 224.56 329.853 224.88C329.061 225.2 328.193 225.36 327.249 225.36ZM340.857 225.36C339.561 225.36 338.429 225.068 337.461 224.484C336.493 223.9 335.741 223.096 335.205 222.072C334.677 221.04 334.413 219.856 334.413 218.52C334.413 217.16 334.685 215.968 335.229 214.944C335.773 213.92 336.529 213.12 337.497 212.544C338.465 211.968 339.585 211.68 340.857 211.68C342.161 211.68 343.297 211.972 344.265 212.556C345.233 213.14 345.985 213.948 346.521 214.98C347.057 216.004 347.325 217.184 347.325 218.52C347.325 219.864 347.053 221.052 346.509 222.084C345.973 223.108 345.221 223.912 344.253 224.496C343.285 225.072 342.153 225.36 340.857 225.36ZM340.857 222.648C342.009 222.648 342.865 222.264 343.425 221.496C343.985 220.728 344.265 219.736 344.265 218.52C344.265 217.264 343.981 216.264 343.413 215.52C342.845 214.768 341.993 214.392 340.857 214.392C340.081 214.392 339.441 214.568 338.937 214.92C338.441 215.264 338.073 215.748 337.833 216.372C337.593 216.988 337.473 217.704 337.473 218.52C337.473 219.776 337.757 220.78 338.325 221.532C338.901 222.276 339.745 222.648 340.857 222.648ZM349.945 225V212.04H355.837C356.261 212.04 356.657 212.064 357.025 212.112C357.393 212.16 357.709 212.22 357.973 212.292C358.597 212.476 359.149 212.836 359.629 213.372C360.109 213.9 360.349 214.632 360.349 215.568C360.349 216.12 360.261 216.576 360.085 216.936C359.909 217.288 359.677 217.584 359.389 217.824C359.253 217.936 359.113 218.032 358.969 218.112C358.825 218.192 358.681 218.256 358.537 218.304C358.849 218.352 359.145 218.444 359.425 218.58C359.865 218.796 360.233 219.116 360.529 219.54C360.833 219.964 360.985 220.56 360.985 221.328C360.985 222.2 360.773 222.936 360.349 223.536C359.933 224.128 359.321 224.54 358.513 224.772C358.217 224.852 357.877 224.912 357.493 224.952C357.109 224.984 356.717 225 356.317 225H349.945ZM352.873 222.768H356.113C356.281 222.768 356.465 222.752 356.665 222.72C356.865 222.688 357.045 222.644 357.205 222.588C357.493 222.484 357.701 222.3 357.829 222.036C357.965 221.772 358.033 221.496 358.033 221.208C358.033 220.816 357.933 220.504 357.733 220.272C357.541 220.032 357.309 219.872 357.037 219.792C356.877 219.728 356.701 219.692 356.509 219.684C356.325 219.668 356.173 219.66 356.053 219.66H352.873V222.768ZM352.873 217.392H355.273C355.521 217.392 355.761 217.38 355.993 217.356C356.233 217.324 356.433 217.272 356.593 217.2C356.857 217.096 357.049 216.92 357.169 216.672C357.297 216.424 357.361 216.148 357.361 215.844C357.361 215.524 357.289 215.236 357.145 214.98C357.009 214.716 356.789 214.54 356.485 214.452C356.285 214.372 356.041 214.328 355.753 214.32C355.473 214.312 355.293 214.308 355.213 214.308H352.873V217.392ZM366.999 225.36C366.063 225.36 365.271 225.184 364.623 224.832C363.975 224.472 363.483 223.996 363.147 223.404C362.819 222.812 362.655 222.16 362.655 221.448C362.655 220.824 362.759 220.264 362.967 219.768C363.175 219.264 363.495 218.832 363.927 218.472C364.359 218.104 364.919 217.804 365.607 217.572C366.127 217.404 366.735 217.252 367.431 217.116C368.135 216.98 368.895 216.856 369.711 216.744C370.535 216.624 371.395 216.496 372.291 216.36L371.259 216.948C371.267 216.052 371.067 215.392 370.659 214.968C370.251 214.544 369.563 214.332 368.595 214.332C368.011 214.332 367.447 214.468 366.903 214.74C366.359 215.012 365.979 215.48 365.763 216.144L363.123 215.316C363.443 214.22 364.051 213.34 364.947 212.676C365.851 212.012 367.067 211.68 368.595 211.68C369.747 211.68 370.759 211.868 371.631 212.244C372.511 212.62 373.163 213.236 373.587 214.092C373.819 214.548 373.959 215.016 374.007 215.496C374.055 215.968 374.079 216.484 374.079 217.044V225H371.547V222.192L371.967 222.648C371.383 223.584 370.699 224.272 369.915 224.712C369.139 225.144 368.167 225.36 366.999 225.36ZM367.575 223.056C368.231 223.056 368.791 222.94 369.255 222.708C369.719 222.476 370.087 222.192 370.359 221.856C370.639 221.52 370.827 221.204 370.923 220.908C371.075 220.54 371.159 220.12 371.175 219.648C371.199 219.168 371.211 218.78 371.211 218.484L372.099 218.748C371.227 218.884 370.479 219.004 369.855 219.108C369.231 219.212 368.695 219.312 368.247 219.408C367.799 219.496 367.403 219.596 367.059 219.708C366.723 219.828 366.439 219.968 366.207 220.128C365.975 220.288 365.795 220.472 365.667 220.68C365.547 220.888 365.487 221.132 365.487 221.412C365.487 221.732 365.567 222.016 365.727 222.264C365.887 222.504 366.119 222.696 366.423 222.84C366.735 222.984 367.119 223.056 367.575 223.056ZM377.179 225V212.04H380.071V217.152H385.891V212.04H388.783V225H385.891V219.864H380.071V225H377.179ZM403.365 212.04V225H400.593V216.54L394.425 225H392.109V212.04H394.881V220.284L401.073 212.04H403.365ZM412.627 225.36C411.315 225.36 410.163 225.076 409.171 224.508C408.179 223.94 407.403 223.152 406.843 222.144C406.291 221.136 406.015 219.976 406.015 218.664C406.015 217.248 406.287 216.02 406.831 214.98C407.375 213.932 408.131 213.12 409.099 212.544C410.067 211.968 411.187 211.68 412.459 211.68C413.803 211.68 414.943 211.996 415.879 212.628C416.823 213.252 417.523 214.136 417.979 215.28C418.435 216.424 418.607 217.772 418.495 219.324H415.627V218.268C415.619 216.86 415.371 215.832 414.883 215.184C414.395 214.536 413.627 214.212 412.579 214.212C411.395 214.212 410.515 214.58 409.939 215.316C409.363 216.044 409.075 217.112 409.075 218.52C409.075 219.832 409.363 220.848 409.939 221.568C410.515 222.288 411.355 222.648 412.459 222.648C413.171 222.648 413.783 222.492 414.295 222.18C414.815 221.86 415.215 221.4 415.495 220.8L418.351 221.664C417.855 222.832 417.087 223.74 416.047 224.388C415.015 225.036 413.875 225.36 412.627 225.36ZM408.163 219.324V217.14H417.079V219.324H408.163Z" fill="#0284C7"/>
</svg>
