<svg width="80" height="82" viewBox="0 0 80 82" fill="none" xmlns="http://www.w3.org/2000/svg">
<path d="M0 3.8147e-06H1.47059V2.07353V41.4706H0V3.8147e-06Z" fill="#334155"/>
<path d="M78.5293 20.8823H79.9999V23.9118V81.4706H78.5293V20.8823Z" fill="#334155"/>
<path d="M21.1764 0H22.647V3.02941V60.5882H21.1764V0Z" fill="#334155"/>
<path d="M40.2943 20.8823H41.7649V22.8676V60.5882H40.2943V20.8823Z" fill="#334155"/>
<path d="M59.4116 20.8823H60.8822V23.9118V81.4706H59.4116V20.8823Z" fill="#334155"/>
<path d="M25.5884 24.8375V36.3899H37.3531V24.8375H25.5884ZM35.4021 34.5946H27.3938V26.6709H35.4021V34.5946Z" fill="#334155"/>
<path d="M46.5111 26.7094H54.5194V36.3899H56.4704V24.8375H44.7057V36.3899H46.5111V26.7094Z" fill="#334155"/>
<path d="M65.629 26.7094H73.6373V36.3899H75.5883V24.8375H63.8236V36.3899H65.629V26.7094Z" fill="#334155"/>
<path d="M4.41162 24.8375H6.31477V34.6036L14.2163 34.6056V24.8375H16.119V34.6056H18.2352V38.1227H16.3296V36.4909L4.41162 36.4717V24.8375Z" fill="#334155"/>
<path d="M60.8823 20.8823L60.8823 22.3529L59.8529 22.3529L40.2941 22.3529L40.2941 20.8823L60.8823 20.8823Z" fill="#334155"/>
<path d="M41.7646 20.8823L41.7646 22.3529L40.7352 22.3529L21.1764 22.3529L21.1764 20.8823L41.7646 20.8823Z" fill="#334155"/>
<path d="M22.647 0L22.647 1.47059L21.5146 1.47059L-8.5895e-05 1.47059L-8.58307e-05 -9.89934e-07L22.647 0Z" fill="#334155"/>
<path d="M22.647 40L22.647 41.4706L21.5146 41.4706L-8.5895e-05 41.4706L-8.58307e-05 40L22.647 40Z" fill="#334155"/>
<path d="M41.7646 59.1176L41.7646 60.5882L40.7352 60.5882L21.1764 60.5882L21.1764 59.1176L41.7646 59.1176Z" fill="#334155"/>
<path d="M60.8823 40L60.8823 41.4706L59.8529 41.4706L40.2941 41.4706L40.2941 40L60.8823 40Z" fill="#334155"/>
<path d="M80 80L80 81.4706L78.9706 81.4706L59.4118 81.4706L59.4118 80L80 80Z" fill="#334155"/>
<path d="M80 20.8823L80 22.3529L78.9706 22.3529L59.4118 22.3529L59.4118 20.8823L80 20.8823Z" fill="#334155"/>
<circle cx="69.706" cy="71.1765" r="5.88235" fill="#0284C7"/>
</svg>
