<svg width="55" height="57" viewBox="0 0 55 57" fill="none" xmlns="http://www.w3.org/2000/svg">
<path d="M0 0H1.01103V1.42555V28.511H0V0Z" fill="#101010"/>
<path d="M53.9888 14.3566H54.9998V16.4393V56.011H53.9888V14.3566Z" fill="#101010"/>
<path d="M14.5586 0H15.5696V2.08272V41.6544H14.5586V0Z" fill="#101010"/>
<path d="M27.7026 14.3566H28.7137V15.7215V41.6544H27.7026V14.3566Z" fill="#101010"/>
<path d="M40.8457 14.3566H41.8567V16.4393V56.011H40.8457V14.3566Z" fill="#101010"/>
<path d="M17.5918 17.0758V25.018H25.68V17.0758H17.5918ZM24.3387 23.7838H18.833V18.3362H24.3387V23.7838Z" fill="#101010"/>
<path d="M31.9761 18.3627H37.4818V25.018H38.8231V17.0758H30.7349V25.018H31.9761V18.3627Z" fill="#101010"/>
<path d="M45.1201 18.3627H50.6258V25.018H51.9671V17.0758H43.8789V25.018H45.1201V18.3627Z" fill="#101010"/>
<path d="M3.0332 17.0758H4.34162V23.7899L9.77389 23.7913V17.0758H11.082V23.7913H12.5369V26.2094H11.2268V25.0875L3.0332 25.0743V17.0758Z" fill="#101010"/>
<path d="M41.8564 14.3566L41.8564 15.3676L41.1487 15.3676L27.702 15.3676L27.702 14.3566L41.8564 14.3566Z" fill="#101010"/>
<path d="M28.7134 14.3566L28.7134 15.3676L28.0057 15.3676L14.559 15.3676L14.559 14.3566L28.7134 14.3566Z" fill="#101010"/>
<path d="M15.5698 0L15.5698 1.01103L14.7913 1.01103L-2.77007e-05 1.01103L-2.76566e-05 -6.8058e-07L15.5698 0Z" fill="#101010"/>
<path d="M15.5698 27.5L15.5698 28.511L14.7913 28.511L-2.77007e-05 28.511L-2.76566e-05 27.5L15.5698 27.5Z" fill="#101010"/>
<path d="M28.7134 40.6434L28.7134 41.6545L28.0057 41.6545L14.559 41.6545L14.559 40.6434L28.7134 40.6434Z" fill="#101010"/>
<path d="M41.8564 27.5L41.8564 28.511L41.1487 28.511L27.702 28.511L27.702 27.5L41.8564 27.5Z" fill="#101010"/>
<path d="M55 55L55 56.011L54.2923 56.011L40.8456 56.011L40.8456 55L55 55Z" fill="#101010"/>
<path d="M55 14.3566L55 15.3676L54.2923 15.3676L40.8456 15.3676L40.8456 14.3566L55 14.3566Z" fill="#101010"/>
<circle cx="47.923" cy="48.9338" r="4.04412" fill="#0284C7"/>
</svg>
